<?xml version="1.0" encoding="UTF-8"?>
<svg width="105mm" height="105mm" version="1.1" viewBox="0 0 105 105" xmlns="http://www.w3.org/2000/svg">
	<path d="m100 55.5s-0.0601 0.827-0.0601 0.827l-4.2-0.305s0.0601-0.827 0.0601-0.827l4.2 0.305m-0.256 2.82-0.11 0.876s-4.16-0.622-4.16-0.622l0.0959-0.77s4.18 0.517 4.18 0.517m-0.418 2.8s-0.165 0.867-0.165 0.867-4.13-0.832-4.13-0.832l0.145-0.763s4.14 0.727 4.14 0.727m-0.594 2.82s-0.205 0.804-0.205 0.804l-4.08-1.04s0.205-0.804 0.205-0.804l4.08 1.04m-0.753 2.73s-0.266 0.841-0.266 0.841l-3.99-1.34 0.234-0.741 4.02 1.24m-0.91 2.68-0.318 0.822-3.92-1.54s0.282-0.724 0.282-0.724l3.95 1.44m-1.09 2.66-0.364 0.802-3.79-1.82s0.321-0.708 0.321-0.708l3.84 1.73m-1.23 2.55-0.414 0.777-3.7-2.01s0.366-0.686 0.366-0.686l3.75 1.91m-1.4 2.51s-0.457 0.752-0.457 0.752l-3.54-2.27 0.403-0.666 3.6 2.18m-1.52 2.38s-0.503 0.722-0.503 0.722l-3.43-2.44s0.446-0.638 0.446-0.638l3.49 2.36m-1.69 2.32s-0.512 0.652-0.512 0.652l-3.31-2.6s0.512-0.652 0.512-0.652l3.31 2.6m-1.8 2.18s-0.585 0.657-0.585 0.657l-3.11-2.83s0.519-0.581 0.519-0.581l3.18 2.76m-1.95 2.11-0.587 0.586s-2.97-2.98-2.97-2.98l0.587-0.586s2.97 2.98 2.97 2.98m-2.04 1.95-0.659 0.582-2.75-3.18 0.584-0.516s2.83 3.12 2.83 3.12m-2.19 1.86-0.652 0.512s-2.6-3.31-2.6-3.31l0.652-0.512s2.6 3.31 2.6 3.31m-2.26 1.69-0.724 0.5s-2.36-3.49-2.36-3.49l0.641-0.443s2.44 3.43 2.44 3.43m-2.4 1.59-0.709 0.431s-2.19-3.6-2.19-3.6l0.709-0.431s2.19 3.6 2.19 3.6m-2.44 1.41-0.778 0.411s-1.92-3.74-1.92-3.74l0.689-0.363 2.01 3.7m-2.57 1.29-0.755 0.342-1.74-3.83 0.755-0.342s1.74 3.83 1.74 3.83m-2.6 1.11-0.822 0.315-1.45-3.95 0.726-0.278 1.55 3.91m-2.71 0.974-0.791 0.248-1.26-4.02 0.791-0.248 1.26 4.02m-2.71 0.79-0.855 0.215-0.956-4.1 0.754-0.19 1.06 4.07m-2.76 0.631-0.867 0.16-0.751-4.14 0.764-0.14 0.854 4.12m-2.84 0.468-0.875 0.112-0.438-4.19s0.77-0.0993 0.77-0.0993l0.543 4.17m-2.81 0.293-0.881 0.0565-0.227-4.2 0.775-0.0495s0.333 4.2 0.333 4.2m-2.88 0.128-0.829 3e-3 -0.0143-4.21 0.829-3e-3 0.0143 4.21m-2.83-0.0469-0.881-0.0457 0.305-4.2 0.775 0.0394-0.199 4.2m-2.82-0.209s-0.877-0.0998-0.877-0.0998l0.517-4.18s0.771 0.0881 0.771 0.0881-0.411 4.19-0.411 4.19m-2.86-0.382-0.817-0.143 0.727-4.15 0.817 0.143-0.727 4.15m-2.78-0.545-0.859-0.202 1.04-4.08 0.756 0.177-0.935 4.1m-2.74-0.705-0.844-0.255 1.24-4.02 0.743 0.226-1.14 4.05m-2.74-0.888-0.828-0.302s1.54-3.92 1.54-3.92l0.73 0.265s-1.44 3.96-1.44 3.96m-2.63-1.03-0.807-0.354 1.73-3.84 0.712 0.312-1.63 3.88m-2.61-1.21-0.739-0.377 1.91-3.75 0.739 0.377-1.91 3.75m-2.49-1.34-0.758-0.447 2.18-3.6 0.67 0.395-2.09 3.65m-2.45-1.51-0.687-0.464 2.35-3.49 0.687 0.464-2.35 3.49m-2.31-1.63-0.699-0.534s2.6-3.31 2.6-3.31l0.619 0.473-2.52 3.37m-2.25-1.79-0.627-0.543s2.76-3.18 2.76-3.18l0.627 0.543-2.76 3.18m-2.1-1.89-0.63-0.613 2.98-2.98 0.559 0.543-2.9 3.05m-2.02-2.04s-0.558-0.614-0.558-0.614l3.11-2.83 0.558 0.614-3.11 2.83m-1.86-2.13s-0.553-0.684-0.553-0.684l3.31-2.6s0.49 0.606 0.49 0.606l-3.25 2.68m-1.76-2.27s-0.481-0.676-0.481-0.676l3.43-2.44s0.481 0.676 0.481 0.676l-3.43 2.44m-1.59-2.33-0.468-0.745 3.6-2.19s0.415 0.659 0.415 0.659l-3.54 2.27m-1.48-2.46s-0.396-0.729-0.396-0.729l3.7-2.01s0.396 0.729 0.396 0.729l-3.7 2.01m-1.3-2.51s-0.377-0.796-0.377-0.796l3.83-1.74s0.333 0.703 0.333 0.703l-3.79 1.83m-1.16-2.58-0.326-0.818 3.91-1.55s0.287 0.723 0.287 0.723l-3.87 1.64m-1.01-2.69-0.279-0.836 4.02-1.26s0.247 0.737 0.247 0.737l-3.98 1.36m-0.837-2.7s-0.226-0.852-0.226-0.852l4.07-1.06s0.198 0.752 0.198 0.752l-4.05 1.16m-0.682-2.8s-0.177-0.864-0.177-0.864 4.14-0.751 4.14-0.751l0.157 0.761s-4.12 0.854-4.12 0.854m-0.504-2.78-0.123-0.874 4.17-0.543 0.108 0.769-4.16 0.648m-0.344-2.86s-0.0656-0.827-0.0656-0.827l4.2-0.333s0.0656 0.827 0.0656 0.827l-4.2 0.333m-0.164-2.82-0.019-0.882 4.21-0.0142 0.0173 0.776-4.21 0.121m-7.9e-4 -2.83s0.0356-0.882 0.0356-0.882l4.2 0.199s-0.0319 0.775-0.0319 0.775-4.21-0.0923-4.21-0.0923m0.17-2.88s0.081-0.825 0.081-0.825l4.19 0.411s-0.081 0.825-0.081 0.825l-4.19-0.411m0.336-2.81s0.137-0.872 0.137-0.872 4.14 0.727 4.14 0.727l-0.12 0.767s-4.16-0.622-4.16-0.622m0.498-2.78 0.191-0.861s4.1 0.935 4.1 0.935l-0.169 0.758s-4.13-0.831-4.13-0.831m0.678-2.8 0.225-0.798 4.05 1.14s-0.225 0.798-0.225 0.798l-4.05-1.14m0.83-2.7 0.292-0.832 3.95 1.44s-0.257 0.733-0.257 0.733l-3.99-1.34m1.01-2.7s0.322-0.764 0.322-0.764l3.88 1.63s-0.322 0.764-0.322 0.764l-3.88-1.63m1.15-2.58 0.389-0.791 3.75 1.91s-0.343 0.698-0.343 0.698l-3.79-1.82m1.3-2.51 0.438-0.764 3.65 2.1-0.388 0.675-3.7-2.01m1.48-2.47 0.48-0.738 3.49 2.35-0.424 0.653-3.54-2.27m1.59-2.33s0.525-0.706 0.525-0.706l3.37 2.52s-0.466 0.624-0.466 0.624l-3.43-2.44m1.76-2.27s0.564-0.675 0.564-0.675l3.18 2.76s-0.499 0.598-0.499 0.598l-3.25-2.68m1.86-2.13 0.605-0.638 3.05 2.91-0.537 0.565-3.11-2.83m2.02-2.05 0.64-0.603s2.83 3.12 2.83 3.12l-0.567 0.535-2.9-3.05m2.09-1.89 0.676-0.562s2.68 3.25 2.68 3.25l-0.6 0.497s-2.75-3.18-2.75-3.18m2.25-1.79 0.707-0.523 2.44 3.43-0.626 0.464-2.52-3.37m2.3-1.63 0.739-0.478 2.27 3.54-0.654 0.423s-2.36-3.49-2.36-3.49m2.44-1.51 0.765-0.435 2.01 3.7-0.676 0.386-2.1-3.65m2.48-1.34 0.791-0.387 1.83 3.79-0.7 0.341-1.92-3.74m2.61-1.21 0.812-0.341 1.55 3.91-0.717 0.303s-1.64-3.87-1.64-3.87m2.63-1.04 0.832-0.29 1.36 3.98-0.735 0.255-1.45-3.95m2.74-0.892 0.797-0.228 1.16 4.05-0.797 0.228-1.16-4.05m2.74-0.712 0.861-0.188 0.854 4.12-0.759 0.166-0.956-4.1m2.82-0.558 0.819-0.128 0.647 4.16-0.819 0.128-0.647-4.16m2.8-0.376 0.878-0.0849s0.333 4.2 0.333 4.2l-0.773 0.0752-0.438-4.19m2.82-0.213 0.882-0.0298 0.121 4.21-0.776 0.0254s-0.227-4.2-0.227-4.2m2.88-0.0422 0.829 0.0182-0.092 4.21-0.829-0.0182 0.092-4.21m2.83 0.126 0.879 0.072s-0.409 4.19-0.409 4.19l-0.774-0.0631s0.304-4.2 0.304-4.2m2.81 0.288 0.873 0.126-0.618 4.16-0.769-0.112 0.514-4.18m2.84 0.467 0.864 0.174-0.927 4.11-0.762-0.153 0.825-4.13m2.76 0.623 0.851 0.228-1.13 4.05-0.751-0.202 1.03-4.08m2.76 0.801 0.787 0.262-1.33 3.99-0.787-0.262 1.33-3.99m2.66 0.951 0.817 0.328-1.62 3.89-0.722-0.29s1.52-3.92 1.52-3.92m2.65 1.13 0.749 0.356-1.8 3.8-0.749-0.356s1.8-3.8 1.8-3.8m2.53 1.26 0.771 0.423s-2.08 3.66-2.08 3.66l-0.683-0.375 1.99-3.71m2.49 1.43 0.701 0.443-2.25 3.56-0.701-0.443s2.25-3.56 2.25-3.56m2.35 1.56 0.715 0.512-2.5 3.39-0.633-0.454 2.42-3.45m2.3 1.72 0.643 0.523-2.65 3.27-0.643-0.523s2.65-3.27 2.65-3.27m2.15 1.83 0.648 0.594-2.88 3.07-0.575-0.527 2.81-3.14m2.08 1.98s0.577 0.595 0.577 0.595l-3.02 2.93s-0.577-0.595-0.577-0.595l3.02-2.93m1.92 2.07s0.573 0.667 0.573 0.667l-3.22 2.71-0.508-0.591 3.16-2.78m1.83 2.21 0.503 0.659-3.34 2.55s-0.503-0.659-0.503-0.659l3.34-2.55m1.66 2.28s0.49 0.73 0.49 0.73l-3.52 2.31s-0.434-0.648-0.434-0.648l3.46-2.39m1.55 2.42s0.422 0.714 0.422 0.714l-3.62 2.14s-0.422-0.714-0.422-0.714l3.62-2.14m1.38 2.46s0.399 0.784 0.399 0.784l-3.77 1.88s-0.353-0.694-0.353-0.694l3.72-1.97m1.25 2.59 0.334 0.759-3.85 1.69s-0.334-0.759-0.334-0.759l3.85-1.69m1.08 2.61 0.303 0.827-3.96 1.41-0.267-0.731 3.93-1.51m0.934 2.72s0.24 0.794 0.24 0.794l-4.03 1.22s-0.24-0.794-0.24-0.794l4.03-1.22m0.754 2.72s0.201 0.858 0.201 0.858l-4.11 0.919s-0.178-0.757-0.178-0.757l4.08-1.02m0.601 2.81s0.141 0.817 0.141 0.817-4.15 0.716-4.15 0.716-0.141-0.817-0.141-0.817 4.15-0.716 4.15-0.716m0.42 2.8 0.0977 0.876-4.19 0.406-0.0863-0.772s4.18-0.51 4.18-0.51m0.257 2.82 0.0425 0.881-4.2 0.197-0.0363-0.776 4.2-0.302m0.0841 2.88s-6e-3 0.882-6e-3 0.882l-4.21-0.119 4e-3 -0.777 4.21 0.0134" fill="#fff" stroke-width="0" style="paint-order:markers stroke fill"/>
	<g style="fill:none;stroke-width:.4;stroke:#fff">
		<path d="m92.3 67.1c-2.98 0.0078-3.49-1.22-3.85-2.51 0.891-28.1-15.9-32.6-23.4-25.6" />
		<path d="m66.4 39.7c-6.06-4.25-13.7 2.88-8.08 9.21-1.06 6.79-2.75 10.1-4.44 14.5 3.83 1.28 8.13-2 10.8-10.7" />
		<path d="m92.3 67.1c-1.1 2.4-4.01 2.67-7.03 2.79 0.545 1.05 0.454 1.64 0.392 2.26-1.07 0.338-2.41-0.0754-3.48-0.441-0.355 0.656-0.85 0.888-1.28 1.31-0.699-0.327-1.48-0.567-1.76-1.32-0.626-0.19-2.16 0.237-3.67 0.758-0.0316-0.912 0.515-1.63 0.999-2.37-0.743-0.0965-1.35-0.382-1.82-0.835-0.694 0.326-1 0.553-1.86 0.46-0.268 1.57-1.29 2.24-2.43 2.75-0.575-0.28-1.16-0.517-1.6-1.62-0.982-0.531-2.1 0.714-3.08 0.897-0.254-1.19 0.27-1.74-0.151-2.09-0.751-0.346-2.8-0.0627-3.81 0.0263-0.11-0.281 0.502-1.13 1.01-1.39 1.5-0.746 1.88-0.799 4.7-1.07-0.308-8.32 0.627-13.1 3.15-13.2" />
		<path d="m59.4 50.1c0.376 1.57 0.017 2.5 3.34 4.61 2.47-2.42 9.05-8.99 4.6-10.4-0.807 0.195-0.911 1.29-1.53 1.97-1.25 1.38-2.59 1.88-4.14 1.44-0.638 1.06-1.29 2.1-2.27 2.37z" />
		<path d="m72.8 69.7c-0.523-0.205-0.git s684-0.848-1.29-0.983-1.58-0.356-3.63-0.174-4.08-1.51" />
		<path d="m76.5 70.1c2.28-0.91 4.76-1.56 8.8-0.187" />
		<path d="m58.3 48.9c0.305 0.715 0.731 1.3 1.1 1.19" />
		<path d="m57.5 47.8c0.119-1.13 1.26-1.75 1.92-1.65 0.661 0.101 1.11 0.413 1.83 2.13" />
		<path d="m58.3 48.9c0.109-1.57 1.87-1.3 2.35 0.193" />
		<path d="m66.6 46.6c0.409-0.368 0.85-0.224 0.916 0.0027-0.182 2.87-2.93 6.41-4.74 8.14" />
		<path d="m62.3 47.8c-0.146-0.92-0.624-3.22 0.523-3.7 1.13-0.477 2.12 0.509 2.97 2.16" />
		<path d="m64.6 47.1c-0.213-2.15-1.81-1.87-2.48-0.804" />
		<path d="m66.5 51c0.482 1.76 1.51 3.06 2.49 4.04" />
		<path d="m68.7 45.4c0.459-0.415 1.88-0.335 2.73-0.0086 1.46 0.559 1.61 0.976 3.48 3.14" />
		<path d="m74.8 42.2c0.167 0.74-0.634 1.56-0.458 2.49 0.433 2.3 1.11 5.27 0.512 8.42 0.76 8.86 2.03 9.96 4.17 12 0.55 0.524 1.92 0.878 2.89 0.576-0.34-2.62 0.126-5.31 0.0581-10.3-0.032-2.32-0.779-6.89-2.05-9.03" />
		<path d="m78.5 69.3c0.539-2.02 0.745-1.76 0.361-4.42" />
		<path d="m73.4 43.4c0.135 0.231 0.159 0.869 0.829 0.832" />
		<path d="m19.9 72c-4.03 0.932-5.04-1.08-6.28-2.87 1.56 0.093 3.15 0.36 4.57-0.866" />
		<path d="m26.2 73.2c1.91-4.8 1.2-7.15-0.487-8.58-0.771 0.209-1.3 0.89-1.87 1.52-0.911-0.636-1.76-0.708-2.6-0.704-0.471 0.437-0.774 1.1-0.812 2.11-0.866 0.117-1.68 0.284-2.19 0.758 0.975 5.36 4.44 5.18 7.96 4.9z" />
		<path d="m18.2 68.3c-1.01-9.22 2.19-13 7.44-14.2 6.39-5.16 11.1-5.53 13.4-5.15" />
		<path d="m39 50.3c0.499-8.52 10.6-6.96 11-1.15" />
		<path d="m50 49.1s0.435 2.66 0.755 4.76c0.188 1.24 0.335 2.28 0.33 2.49-0.0129 0.55-0.643 2.82-1.46 2.53-5.41-2.58-4.34-1.81-6.14-3.66-0.924-0.953-1.39-1.83-1.22-2.79 0.13-0.965 1.1-0.259 1.75-0.184 0.132 1.53 1.01 1.77 1.85 1.67 0.839-0.0959 1.74-0.605 2.13-0.989 0.434-0.0931 0.727 0.411 1.41 0.718 0.479 0.214 1.28-0.0464 1.1-0.595" />
		<path d="m35.3 62.2c0.569-0.554 1.66-1.68 2.3-3.37 1.38-0.963 2.56-1.89 3.49-2.38 3.49-1.81 3.99-0.251 2.51 3.02-0.317 0.703-0.778 0.995-1.27 1.9-0.347 1.51 0.209 2.99 0.464 4.44" />
		<path d="m44 52.3c0.4-0.73 0.532-1.45 0.888-1.89 0.719-0.872 1.93-0.81 2.5 0.546 0.235 0.561 0.0071 1.42 0.0066 2.42" />
		<path d="m26.5 72.4c2.34 1.07 4.6 1.45 6.94 0.706 0.54 0.378 1.01 0.945 1.73 0.857 4.54-1.04 6.67-2.84 8.83-4.63 0.022-0.565-0.0728-1.16-0.741-1.87 0.0358-0.313 0.103-0.725-0.131-1.42-0.401-0.322-1.13-0.136-1.67-0.145-0.852-1.26-1.64-1.58-2.41-1.77-0.851 0.294-1.5 1.34-2.24 2.24" />
		<path d="m48.4 52.9c0.0864-1.7 0.0229-3.52 1.7-2.66" />
		<path d="m47.4 51.3c-1.53-0.576-2.25 0.128-1.89 2.57" />
		<path d="m48.5 51.4c1.28-0.898 1.61 0.764 1.9 1.9" />
		<path d="m43.4 53.5c0.415 0.268 0.663 1.08 1.08 1.55 1.02 1.14 2.49 2.18 3.45 3.03" />
		<path d="m47.9 58.1c-0.844 11.1 1.91 12.7 4.37 14.4-2.17 0.838-4.18 2.2-8.25-3.07" />
		<path d="m35.3 56.1c-1.02 8.53 1.74 11.5 4.93 12.8 0.771 0.313 0.862 2.1 0.525 2.84-10.2 0.835-12.4-5.68-10.7-15.9" />
		<path d="m34.1 71.1c-0.22 0.93-0.437 1.37-0.655 2.08" />
		<path d="m31 68.3c-1.66 2.33-1.25 3.73-0.873 5.15" />
		<path d="m42.3 61.4c-0.984 0.471-1.78 0.0861-2.53-0.48" />
		<path d="m42.3 61.4s-0.357 2.52-1.12 3.8" />
		<path d="m63.1 38.5c-0.129-2.05 0.589-5.57-3.1-8.48" />
		<path d="m51.2 26.9c-2.47-0.182-3.91-0.0573-5.51 1.43" />
		<path d="m44.9 27.7c0.714-10.3-10.4-9.32-11.2-1.59-13.5 5.6-12.2 19.8-15.9 32.1-0.431 1.46-2.69 2.08-3.82 2.52 0.791 1.12 1.18 2.61 4.17 1.76" />
		<path d="m59.9 30.1c-1.51 2.19-3.66 3.11-5.97 3.5-1.82-2.47-2.06-1.76-2.74-6.65" />
		<path d="m51.4 26.9c0.633-0.181 1.42 0.601 2.01 0.603 0.848 0.0018 1.22-0.637 1.96-0.468 0.734 0.166 0.761 1.13 1.55 1.67 0.441 0.299 1.95 0.0187 2.58 0.208 0.506 0.151 0.15 0.764 0.456 1.02" />
		<path d="m53.9 33.6c2.06-0.866 4.23-1.6 5.04-3.96" />
		<path d="m51.9 26.9c0.807-2.26 1.17-3.2 1.8-3.25 0.415-0.037 1.14 0.116 1.3 1.58 0.0583 0.543-0.0518 1.09-0.0349 1.88" />
		<path d="m56.3 27.9c0.118-1.53 1.52-3.28 2.51-3.03 0.4 0.102 0.868 0.24 0.944 1.3 0.0452 0.639-0.176 1.75-0.603 2.7" />
		<path d="m45.7 28.4c0.987 0.484 4.17 2.88 1.48 4.01-2.54-0.705-3.26-0.138-4.98-0.549-2.74-1.39-3.8-2.42-3.93-3.25" />
		<path d="m45.7 28.4c-0.377-0.497-0.935-0.838-1.31-0.589-0.86 1.05-1.41 1.32-2.12 1.25-2.87 0.3-2.45-1.3-3.49-2.06-1.1-0.158-1.55 0.489-1.7 1.52 0.346 1.04 0.38 2.14 2.09 2.95 1.32 0.744 2.18 0.577 3.03 0.388" />
		<path d="m44 28.2c-0.185-0.762-0.183-1.42-0.404-1.96-0.764-1.85-1.92-2.19-2.79 0.055-0.243 0.627-0.167 1.46-0.43 2.51" />
		<path d="m41.7 29.1c-0.172-2.31 0.643-2.93 1.9-2.78" />
		<path d="m32.8 38.5c4.38-7.19 6.95-6.67 6.17 2.64" />
		<path d="m40.7 32c-1.15 0.11-1.79 1.47-2.08 2.36" />
		<path d="m32.8 38.5c0.203 3.66 1.57 5.13 2.69 7.44 0.935-2.94 2.87-4.44 4.8-5.77" />
		<path d="m32.9 32.8c-0.296 1.8-0.181 3.76-0.0927 5.71" />
		<path d="m35.5 45.9c-0.151 0.882-0.284 1.8-0.279 3" />
		<path d="m26.5 37.3c-0.919 7.03 0.292 10.2 4.38 13.2" />
		<path d="m50.9 45.4c1.62 7.43 3.58 8.32 5.71 9.93 0.384-3.57 0.558-11.9-5.88-15.7" />
		<path d="m49.1 42.2c-0.951 1.47-1.64 2.07-3.79 2.21" />
		<path d="m41.4 42.2c-0.105-0.333-0.0112-1.41 1.29-1.07 0.852 0.228 1.6-0.0213 2.14-0.308 0.859-0.454 0.588 0.396 1.75 0.507 1.24 0.119 2.12-0.395 2.72-0.261 0.443 0.0984 0.805 0.764 0.71 1.2" />
		<path d="m42 41.1c-0.378-3.29 2.72-4.09 2.73-0.283" />
		<path d="m45.9 41.1c-0.559-2.67 2.53-4.52 2.94-0.0641" />
		<path d="m44.5 39.6c-1.28-0.574-1.66-0.157-1.71 1.27" />
		<path d="m46.1 39.7c0.758-0.0546 1.77-0.957 2.02 1.49" />
		<path d="m40.9 44.7c-0.219 0.749-0.212 0.829-0.496 1.45" />
		<path d="m55.3 54.3c0.128 2.51-0.0472 5.01-0.51 6.86" />
		<path d="m52.6 50.7c0.14 4.08 2.19 16.5-4.57 13.6" />
		<path d="m51.8 63.7c0.759-0.14 1.79 0.0436 2.43-1.11" />
		<path d="m57.1 26c0.949 0.112 1.86 0.275 1.18 2.93" />
		<path d="m53 27.4c0.379-1.34 0.643-2.59 2.01-2.05" />
		<path d="m48.8 68.3c0.393-0.3 0.718-0.466 1.19-0.931 0.685 0.452 1.28 0.676 1.78 0.662 0.406-0.432 0.821-0.846 1.05-1.64 0.68-0.0594 1.16 0.275 2.09-0.279 0.438-1.1-0.516-1.89-1.33-2.72" />
		<path d="m62.3 58.8c0.73 0.397 1.52 0.657 1.89 1.85-0.182 0.325-0.161 0.621-1.81 1.15 0.0792 0.701-0.326 1.31-0.697 1.92-0.836 0.0911-1.51-0.226-2.16-0.593-0.325 0.488-0.744 0.883-1.26 1.19-0.809 0.575-0.907-0.273-1.2-0.738" />
		<path d="m58.7 68c-2.72 0.748-3.46 4.55-3.39 9.6-0.323 0.282-0.359 1.01-1.27 0.38-0.806-1.53-1.75-2.79-3.54-2.3 0.54 1.82 0.0631 2.96-0.16 4.27-0.0866 0.0782 1.6 1.55 1.75 3.09 1.35-0.474 2.69-0.517 2.66-2.81 10.3-0.861 5.49-12.3 3.94-12.2z" />
		<path d="m54.1 78c-0.398 0.537-1.21 0.923 0.71 2.31" />
		<path d="m51.9 78c0.711-0.141 1.21 0.223 1.67 0.695" />
		<path d="m52.1 80.3c0.534-0.554 1.07-0.813 1.6-0.949" />
		<path d="m53.2 81.5c0.937-0.636 0.962-1.09 1.09-1.56" />
		<path d="m55.5 73.3c1.84-1.28 3.73-1.07 5.65 0.629" />
		<path d="m58.8 68c-0.275 0.994-0.454 1.99 0.267 2.97" />
		<path d="m55.3 75.8c-1.2 0.0906-2.26-0.203-2.87-1.79 1.32-0.3 2-1.6 2.58-3.05 0.519-0.442 0.785-0.272 1.02-0.0302" />
		<path d="m55.7 72.4c-0.744 0.741-1.35 1.09-1.47 1.39" />
		<path d="m55.5 73.7c-0.567 0.179-0.734 0.457-0.981 0.716" />
		<path d="m57 71.9c0.318 0.0828 0.757-0.217 0.824-0.539 0.0651-0.313-0.165-0.782-0.528-0.802-0.306-0.0165-0.615 0.332-0.666 0.634-0.0434 0.262 0.112 0.64 0.369 0.707z" />
		<path d="m48.4 76.7c-1.15 0.283-1.05 0.923-1.56 1.1-0.511 0.178-1.16-0.581-0.261-1.36 0.9-0.782 1.85-0.203 1.82 0.261z" />
		<path d="m47.7 79.7c0.0558 0.237-0.0949 0.557-0.0563 0.769 0.152 0.838 0.462 1.25 0.215 1.8-0.0733 0.163-0.264 0.334-0.441 0.307-0.207-0.0318-0.343-0.291-0.383-0.497-0.157-0.808 0.232-2.06 0.666-2.38z" />
		<path d="m40.1 32.1c-0.19 2.87 0.212 3.72 0.517 4.69" />
		<path d="m51.9 48.9c-1.45-2.78-1.81-2.7-3.23-2.82" />
		<path d="m41.4 42.2c0.218 1.1 0.501 1.9 1.18 2.45" />
		<path d="m50 42.2c-0.372 1.1-0.93 2.02-2.69 2.84" />
		<path d="m49.9 41.5c0.602-0.712 0.974-1.95 0.885-2.77 1.83e-4 -2.92-2.37-5.29-5.29-5.29-2.92 1.03e-4 -5.29 2.37-5.29 5.29 0.0019 0.711-0.0452 2.16 1.19 3.2" style="paint-order:markers stroke fill;stroke-width:.4"/>
		<path d="m60 30c1.37-1.02 2.15-3.05 2.15-4.68 2.54e-4 -2.96-2.2-5.47-5.4-5.47-3.2 8.9e-5 -5.6 2.74-5.6 5.7 5.3e-4 0.314 0.0363 1.1 0.0961 1.41" style="paint-order:markers stroke fill;stroke-width:.4"/>
		<path d="m43.4 32c-0.459 0.7-0.861 1.45-0.963 2.43" />
		<path d="m48 34.1c6.44-0.41 9.29 4.99 8.86 8.03" />
		<path d="m48.1 33.2c-0.216 0.159-0.367 0.415-0.438 0.79" />
		<path d="m56.8 36.9c0.618 1.67 0.268 3.23 0.221 4.83" />
		<path d="m56.6 45.7c0.0212 1.31-0.0268 2.16-0.107 2.81" />
		<path d="m56.9 46.9c0.116 0.999 0.208 1.73 1.09 4.09" />
		<path d="m41.6 64.5c0.333 0.137 0.635 0.0943 0.924-0.0322" />
	</g>
</svg>
