<?xml version="1.0" encoding="UTF-8" standalone="no"?>
<!-- Generator: Adobe Illustrator 16.0.0, SVG Export Plug-In . SVG Version: 6.00 Build 0)  -->

<svg
   xmlns:dc="http://purl.org/dc/elements/1.1/"
   xmlns:cc="http://creativecommons.org/ns#"
   xmlns:rdf="http://www.w3.org/1999/02/22-rdf-syntax-ns#"
   xmlns:svg="http://www.w3.org/2000/svg"
   xmlns="http://www.w3.org/2000/svg"
   xmlns:sodipodi="http://sodipodi.sourceforge.net/DTD/sodipodi-0.dtd"
   xmlns:inkscape="http://www.inkscape.org/namespaces/inkscape"
   version="1.1"
   id="Layer_1"
   x="0px"
   y="0px"
   width="665.5672"
   height="190"
   viewBox="-137.167 0 665.5672 190.00001"
   enable-background="new -137.167 0 487.833 149.333"
   xml:space="preserve"
   inkscape:version="0.92.3 (2405546, 2018-03-11)"
   sodipodi:docname="PinguiniStilNovoTextOnlyWhite.svg"
   inkscape:export-filename="/home/baldo/Scaricati/logofighetto.png"
   inkscape:export-xdpi="96"
   inkscape:export-ydpi="96"><metadata
     id="metadata163"><rdf:RDF><cc:Work
         rdf:about=""><dc:format>image/svg+xml</dc:format><dc:type
           rdf:resource="http://purl.org/dc/dcmitype/StillImage" /><dc:title /></cc:Work></rdf:RDF></metadata><defs
     id="defs161"><inkscape:perspective
       sodipodi:type="inkscape:persp3d"
       inkscape:vp_x="0 : 85.134999 : 1"
       inkscape:vp_y="0 : 1000 : 0"
       inkscape:vp_z="171.62201 : 85.134999 : 1"
       inkscape:persp3d-origin="85.811001 : 56.756667 : 1"
       id="perspective1028" /><clipPath
       clipPathUnits="userSpaceOnUse"
       id="clipPath1133"><path
         d="M 0,0 H 595.276 V 841.89 H 0 Z"
         id="path1131"
         inkscape:connector-curvature="0" /></clipPath></defs><sodipodi:namedview
     pagecolor="#ffffff"
     bordercolor="#666666"
     borderopacity="1"
     objecttolerance="10"
     gridtolerance="10"
     guidetolerance="10"
     inkscape:pageopacity="0"
     inkscape:pageshadow="2"
     inkscape:window-width="1920"
     inkscape:window-height="1025"
     id="namedview159"
     showgrid="false"
     inkscape:zoom="0.86389325"
     inkscape:cx="437.5385"
     inkscape:cy="245.97306"
     inkscape:window-x="0"
     inkscape:window-y="27"
     inkscape:window-maximized="1"
     inkscape:current-layer="Layer_1"
     fit-margin-top="5"
     fit-margin-left="5"
     fit-margin-right="5"
     fit-margin-bottom="5"
     inkscape:object-paths="true"
     inkscape:object-nodes="true"
     showguides="false" /><g
     id="Layer_3"
     display="none"
     style="display:none"
     transform="translate(-84.02124,38.737748)"><rect
       x="-183"
       y="-23.667"
       display="inline"
       width="576.66699"
       height="185.33299"
       id="rect4"
       style="display:inline;fill:#ffffff" /></g><g
     id="Layer_2"
     transform="translate(-84.02124,38.737748)" /><g
     id="Layer_4"
     transform="translate(-84.02124,38.737748)" /><path
     style="opacity:1;fill:#000000;fill-opacity:1;stroke:#000000;stroke-width:0.26353481;stroke-linecap:square;stroke-linejoin:round;stroke-miterlimit:4;stroke-dasharray:none;stroke-dashoffset:0;stroke-opacity:1;paint-order:markers stroke fill"
     d=""
     id="path4639"
     inkscape:connector-curvature="0" /><g
     transform="translate(-2.0146484e-5,1.9e-5)"
     id="g916"
     style="fill:#ffffff"><path
       style="font-style:normal;font-variant:normal;font-weight:300;font-stretch:normal;font-size:medium;line-height:1.25;font-family:'Open Sans';-inkscape-font-specification:'Open Sans, Light';font-variant-ligatures:normal;font-variant-caps:normal;font-variant-numeric:normal;font-feature-settings:normal;text-align:start;letter-spacing:-1.44000006px;word-spacing:0px;writing-mode:lr-tb;text-anchor:start;fill:#ffffff;fill-opacity:1;stroke:none;stroke-width:1.97188997"
       d="m -98.273842,22.062105 q 0,8.165163 -5.546158,12.517341 -5.54614,4.352198 -15.71409,4.352198 h -8.70438 v 23.263017 h -3.92851 V 5.8858439 h 13.78834 q 20.104798,0 20.104798,16.1762611 z M -128.23847,35.54232 h 7.74151 q 9.51318,0 13.74983,-3.119707 4.23664,-3.158219 4.23664,-10.206444 0,-6.509031 -4.00556,-9.628739 -4.00554,-3.1582181 -12.4018,-3.1582181 h -9.32062 z"
       id="path931"
       inkscape:connector-curvature="0" /><path
       style="font-style:normal;font-variant:normal;font-weight:300;font-stretch:normal;font-size:medium;line-height:1.25;font-family:'Open Sans';-inkscape-font-specification:'Open Sans, Light';font-variant-ligatures:normal;font-variant-caps:normal;font-variant-numeric:normal;font-feature-settings:normal;text-align:start;letter-spacing:-1.44000006px;word-spacing:0px;writing-mode:lr-tb;text-anchor:start;fill:#ffffff;fill-opacity:1;stroke:none;stroke-width:1.97188997"
       d="m -40.255929,33.963211 q 0,13.403193 -6.701587,21.221717 -6.701606,7.780033 -18.487178,7.780033 -11.747042,0 -18.448648,-7.780033 -6.701587,-7.818524 -6.701587,-21.298739 0,-13.441704 6.740117,-21.144695 6.778609,-7.741502 18.487159,-7.741502 11.785553,0 18.448648,7.780013 6.663076,7.741502 6.663076,21.183206 z m -46.063844,0 q 0,12.09368 5.392094,18.718264 5.392074,6.586034 15.482985,6.586034 10.167952,0 15.521515,-6.547523 5.392094,-6.547542 5.392094,-18.756775 0,-12.170722 -5.392094,-18.641223 -5.353563,-6.5090115 -15.444474,-6.5090115 -10.052399,0 -15.521515,6.5475225 -5.430605,6.547543 -5.430605,18.602712 z"
       id="path933"
       inkscape:connector-curvature="0" /><path
       style="font-style:normal;font-variant:normal;font-weight:300;font-stretch:normal;font-size:medium;line-height:1.25;font-family:'Open Sans';-inkscape-font-specification:'Open Sans, Light';font-variant-ligatures:normal;font-variant-caps:normal;font-variant-numeric:normal;font-feature-settings:normal;text-align:start;letter-spacing:-1.44000006px;word-spacing:0px;writing-mode:lr-tb;text-anchor:start;fill:#ffffff;fill-opacity:1;stroke:none;stroke-width:1.97188997"
       d="M -32.577019,62.194661 V 5.8858439 h 3.928518 V 58.49723 h 26.8448962 v 3.697431 z"
       id="path935"
       inkscape:connector-curvature="0" /><path
       style="font-style:normal;font-variant:normal;font-weight:300;font-stretch:normal;font-size:medium;line-height:1.25;font-family:'Open Sans';-inkscape-font-specification:'Open Sans, Light';font-variant-ligatures:normal;font-variant-caps:normal;font-variant-numeric:normal;font-feature-settings:normal;text-align:start;letter-spacing:-1.44000006px;word-spacing:0px;writing-mode:lr-tb;text-anchor:start;fill:#ffffff;fill-opacity:1;stroke:none;stroke-width:1.97188997"
       d="M 5.8752974,62.194661 V 5.8858439 H 9.803815 V 62.194661 Z"
       id="path937"
       inkscape:connector-curvature="0" /><path
       style="font-style:normal;font-variant:normal;font-weight:300;font-stretch:normal;font-size:medium;line-height:1.25;font-family:'Open Sans';-inkscape-font-specification:'Open Sans, Light';font-variant-ligatures:normal;font-variant-caps:normal;font-variant-numeric:normal;font-feature-settings:normal;text-align:start;letter-spacing:-1.44000006px;word-spacing:0px;writing-mode:lr-tb;text-anchor:start;fill:#ffffff;fill-opacity:1;stroke:none;stroke-width:1.97188997"
       d="M 39.744331,62.194661 H 35.777303 V 9.5832756 H 17.482719 V 5.8858439 H 58.038915 V 9.5832756 H 39.744331 Z"
       id="path939"
       inkscape:connector-curvature="0" /><path
       style="font-style:normal;font-variant:normal;font-weight:300;font-stretch:normal;font-size:medium;line-height:1.25;font-family:'Open Sans';-inkscape-font-specification:'Open Sans, Light';font-variant-ligatures:normal;font-variant-caps:normal;font-variant-numeric:normal;font-feature-settings:normal;text-align:start;letter-spacing:-1.44000006px;word-spacing:0px;writing-mode:lr-tb;text-anchor:start;fill:#ffffff;fill-opacity:1;stroke:none;stroke-width:1.97188997"
       d="M 96.491241,62.194661 H 65.717827 V 5.8858439 h 30.773414 v 3.62039 H 69.646345 V 30.804992 h 25.342829 v 3.62041 H 69.646345 v 24.14885 h 26.844896 z"
       id="path941"
       inkscape:connector-curvature="0" /><path
       style="font-style:normal;font-variant:normal;font-weight:300;font-stretch:normal;font-size:medium;line-height:1.25;font-family:'Open Sans';-inkscape-font-specification:'Open Sans, Light';font-variant-ligatures:normal;font-variant-caps:normal;font-variant-numeric:normal;font-feature-settings:normal;text-align:start;letter-spacing:-1.44000006px;word-spacing:0px;writing-mode:lr-tb;text-anchor:start;fill:#ffffff;fill-opacity:1;stroke:none;stroke-width:1.97188997"
       d="m 131.20761,8.6204018 q -10.59161,0 -16.67696,6.7786282 -6.08535,6.778608 -6.08535,18.564181 0,12.055169 5.73871,18.718264 5.73873,6.663076 16.40737,6.663076 7.08673,0 13.01804,-1.810195 v 3.466326 q -5.58467,1.964279 -13.94241,1.964279 -11.86259,0 -18.67973,-7.664481 -6.81714,-7.66446 -6.81714,-21.414291 0,-8.588823 3.23524,-15.136366 3.27377,-6.547542 9.35914,-10.0909102 6.12387,-3.5818988 14.21201,-3.5818988 8.24218,0 14.75121,3.0811965 l -1.57911,3.5433675 Q 137.98624,8.6204018 131.20761,8.6204018 Z"
       id="path943"
       inkscape:connector-curvature="0" /><path
       style="font-style:normal;font-variant:normal;font-weight:300;font-stretch:normal;font-size:medium;line-height:1.25;font-family:'Open Sans';-inkscape-font-specification:'Open Sans, Light';font-variant-ligatures:normal;font-variant-caps:normal;font-variant-numeric:normal;font-feature-settings:normal;text-align:start;letter-spacing:-1.44000006px;word-spacing:0px;writing-mode:lr-tb;text-anchor:start;fill:#ffffff;fill-opacity:1;stroke:none;stroke-width:1.97188997"
       d="m 194.34804,62.194661 h -3.96705 l -33.35393,-49.99238 h -0.30811 q 0.46217,8.935462 0.46217,13.480214 v 36.512166 h -3.77445 V 5.8858439 h 3.92852 L 190.6506,55.801183 h 0.23109 q -0.34664,-6.932692 -0.34664,-13.172107 V 5.8858439 h 3.81299 z"
       id="path945"
       inkscape:connector-curvature="0" /><path
       style="font-style:normal;font-variant:normal;font-weight:300;font-stretch:normal;font-size:medium;line-height:1.25;font-family:'Open Sans';-inkscape-font-specification:'Open Sans, Light';font-variant-ligatures:normal;font-variant-caps:normal;font-variant-numeric:normal;font-feature-settings:normal;text-align:start;letter-spacing:-1.44000006px;word-spacing:0px;writing-mode:lr-tb;text-anchor:start;fill:#ffffff;fill-opacity:1;stroke:none;stroke-width:1.97188997"
       d="M 202.02697,62.194661 V 5.8858439 h 3.92854 V 62.194661 Z"
       id="path947"
       inkscape:connector-curvature="0" /><path
       style="font-style:normal;font-variant:normal;font-weight:300;font-stretch:normal;font-size:medium;line-height:1.25;font-family:'Open Sans';-inkscape-font-specification:'Open Sans, Light';font-variant-ligatures:normal;font-variant-caps:normal;font-variant-numeric:normal;font-feature-settings:normal;text-align:start;letter-spacing:-1.44000006px;word-spacing:0px;writing-mode:lr-tb;text-anchor:start;fill:#ffffff;fill-opacity:1;stroke:none;stroke-width:1.97188997"
       d="m 240.67191,8.6204018 q -10.59162,0 -16.67697,6.7786282 -6.08537,6.778608 -6.08537,18.564181 0,12.055169 5.73873,18.718264 5.73872,6.663076 16.40735,6.663076 7.08676,0 13.01805,-1.810195 v 3.466326 q -5.58465,1.964279 -13.94239,1.964279 -11.86262,0 -18.67975,-7.664481 -6.81714,-7.66446 -6.81714,-21.414291 0,-8.588823 3.23526,-15.136366 3.27377,-6.547542 9.35912,-10.0909102 6.12388,-3.5818988 14.212,-3.5818988 8.24221,0 14.75122,3.0811965 l -1.57911,3.5433675 q -6.16239,-3.0811762 -12.941,-3.0811762 z"
       id="path949"
       inkscape:connector-curvature="0" /><path
       style="font-style:normal;font-variant:normal;font-weight:300;font-stretch:normal;font-size:medium;line-height:1.25;font-family:'Open Sans';-inkscape-font-specification:'Open Sans, Light';font-variant-ligatures:normal;font-variant-caps:normal;font-variant-numeric:normal;font-feature-settings:normal;text-align:start;letter-spacing:-1.44000006px;word-spacing:0px;writing-mode:lr-tb;text-anchor:start;fill:#ffffff;fill-opacity:1;stroke:none;stroke-width:1.97188997"
       d="m 313.20993,33.963211 q 0,13.403193 -6.70159,21.221717 -6.7016,7.780033 -18.48716,7.780033 -11.74706,0 -18.44864,-7.780033 -6.70161,-7.818524 -6.70161,-21.298739 0,-13.441704 6.74012,-21.144695 6.77863,-7.741502 18.48716,-7.741502 11.78557,0 18.44864,7.780013 6.66308,7.741502 6.66308,21.183206 z m -46.06384,0 q 0,12.09368 5.39209,18.718264 5.39209,6.586034 15.483,6.586034 10.16794,0 15.52152,-6.547523 5.39207,-6.547542 5.39207,-18.756775 0,-12.170722 -5.39207,-18.641223 -5.35358,-6.5090115 -15.44449,-6.5090115 -10.0524,0 -15.52152,6.5475225 -5.4306,6.547543 -5.4306,18.602712 z"
       id="path951"
       inkscape:connector-curvature="0" /><path
       style="font-style:normal;font-variant:normal;font-weight:300;font-stretch:normal;font-size:medium;line-height:1.25;font-family:'Open Sans';-inkscape-font-specification:'Open Sans, Light';font-variant-ligatures:normal;font-variant-caps:normal;font-variant-numeric:normal;font-feature-settings:normal;text-align:start;letter-spacing:-1.44000006px;word-spacing:0px;writing-mode:lr-tb;text-anchor:start;fill:#ffffff;fill-opacity:1;stroke:none;stroke-width:1.97188997"
       d="m 388.25812,33.963211 q 0,13.403193 -6.70161,21.221717 -6.70158,7.780033 -18.48715,7.780033 -11.74705,0 -18.44865,-7.780033 -6.70159,-7.818524 -6.70159,-21.298739 0,-13.441704 6.7401,-21.144695 6.77863,-7.741502 18.48718,-7.741502 11.78555,0 18.44865,7.780013 6.66307,7.741502 6.66307,21.183206 z m -46.06384,0 q 0,12.09368 5.39209,18.718264 5.39208,6.586034 15.48299,6.586034 10.16795,0 15.52151,-6.547523 5.39209,-6.547542 5.39209,-18.756775 0,-12.170722 -5.39209,-18.641223 -5.35356,-6.5090115 -15.44447,-6.5090115 -10.0524,0 -15.52152,6.5475225 -5.4306,6.547543 -5.4306,18.602712 z"
       id="path953"
       inkscape:connector-curvature="0" /><path
       style="font-style:normal;font-variant:normal;font-weight:300;font-stretch:normal;font-size:medium;line-height:1.25;font-family:'Open Sans';-inkscape-font-specification:'Open Sans, Light';font-variant-ligatures:normal;font-variant-caps:normal;font-variant-numeric:normal;font-feature-settings:normal;text-align:start;letter-spacing:-1.44000006px;word-spacing:0px;writing-mode:lr-tb;text-anchor:start;fill:#ffffff;fill-opacity:1;stroke:none;stroke-width:1.97188997"
       d="m 431.99596,22.062105 q 0,8.165163 -5.54614,12.517341 -5.54615,4.352198 -15.71409,4.352198 h -8.70437 v 23.263017 h -3.92852 V 5.8858439 h 13.78834 q 20.10478,0 20.10478,16.1762611 z m -29.9646,13.480215 h 7.7415 q 9.51319,0 13.74983,-3.119707 4.23665,-3.158219 4.23665,-10.206444 0,-6.509031 -4.00556,-9.628739 -4.00556,-3.1582181 -12.40181,-3.1582181 h -9.32061 z"
       id="path955"
       inkscape:connector-curvature="0" /><path
       style="font-style:normal;font-variant:normal;font-weight:300;font-stretch:normal;font-size:medium;line-height:1.25;font-family:'Open Sans';-inkscape-font-specification:'Open Sans, Light';font-variant-ligatures:normal;font-variant-caps:normal;font-variant-numeric:normal;font-feature-settings:normal;text-align:start;letter-spacing:-1.44000006px;word-spacing:0px;writing-mode:lr-tb;text-anchor:start;fill:#ffffff;fill-opacity:1;stroke:none;stroke-width:1.97188997"
       d="M 472.61412,62.194661 H 441.84069 V 5.8858439 h 30.77343 v 3.62039 H 445.7692 V 30.804992 h 25.34283 v 3.62041 H 445.7692 v 24.14885 h 26.84492 z"
       id="path957"
       inkscape:connector-curvature="0" /><path
       style="font-style:normal;font-variant:normal;font-weight:300;font-stretch:normal;font-size:medium;line-height:1.25;font-family:'Open Sans';-inkscape-font-specification:'Open Sans, Light';font-variant-ligatures:normal;font-variant-caps:normal;font-variant-numeric:normal;font-feature-settings:normal;text-align:start;letter-spacing:-1.44000006px;word-spacing:0px;writing-mode:lr-tb;text-anchor:start;fill:#ffffff;fill-opacity:1;stroke:none;stroke-width:1.97188997"
       d="m 523.40022,62.194661 h -3.96705 l -33.35391,-49.99238 h -0.30812 q 0.46217,8.935462 0.46217,13.480214 v 36.512166 h -3.77446 V 5.8858439 h 3.92852 l 33.31542,49.9153391 h 0.23109 q -0.34664,-6.932692 -0.34664,-13.172107 V 5.8858439 h 3.81298 z"
       id="path959"
       inkscape:connector-curvature="0" /><path
       style="font-style:normal;font-variant:normal;font-weight:300;font-stretch:normal;font-size:medium;line-height:1.25;font-family:'Open Sans';-inkscape-font-specification:'Open Sans, Light';font-variant-ligatures:normal;font-variant-caps:normal;font-variant-numeric:normal;font-feature-settings:normal;text-align:start;letter-spacing:0px;word-spacing:0px;writing-mode:lr-tb;text-anchor:start;fill:#ffffff;fill-opacity:1;stroke:none;stroke-width:3.7969718"
       inkscape:connector-curvature="0"
       d="m -124.89936,102.90576 v 52.20806 q 0,12.16212 5.11699,17.72403 5.11695,5.48777 15.87005,5.48777 14.38688,0 21.135351,-7.2676 6.822665,-7.26759 6.822665,-23.65676 v -44.4955 h 7.267593 v 80.611 h -6.229387 l -1.334864,-11.12387 h -0.444929 q -7.86087,12.60708 -27.958009,12.60708 -27.51305,0 -27.51305,-29.44118 v -52.65303 z"
       id="path1155" /><path
       style="font-style:normal;font-variant:normal;font-weight:300;font-stretch:normal;font-size:medium;line-height:1.25;font-family:'Open Sans';-inkscape-font-specification:'Open Sans, Light';font-variant-ligatures:normal;font-variant-caps:normal;font-variant-numeric:normal;font-feature-settings:normal;text-align:start;letter-spacing:0px;word-spacing:0px;writing-mode:lr-tb;text-anchor:start;fill:#ffffff;fill-opacity:1;stroke:none;stroke-width:3.7969718"
       inkscape:connector-curvature="0"
       d="m 10.462174,183.51676 v -52.28221 q 0,-12.16208 -5.1169888,-17.64988 -5.11698885,-5.56192 -15.8700882,-5.56192 -14.461033,0 -21.209504,7.34175 -6.674317,7.26759 -6.674317,23.65677 v 44.49549 h -7.341787 v -80.611 h 6.229388 l 1.409018,11.04972 h 0.444967 q 7.860871,-12.60708 27.9580138,-12.60708 27.4388922,0 27.4388922,29.44122 v 52.72714 z"
       id="path1157" /><path
       style="font-style:normal;font-variant:normal;font-weight:300;font-stretch:normal;font-size:medium;line-height:1.25;font-family:'Open Sans';-inkscape-font-specification:'Open Sans, Light';font-variant-ligatures:normal;font-variant-caps:normal;font-variant-numeric:normal;font-feature-settings:normal;text-align:start;letter-spacing:0px;word-spacing:0px;writing-mode:lr-tb;text-anchor:start;fill:#ffffff;fill-opacity:1;stroke:none;stroke-width:3.7969718"
       d="M 48.759328,183.51676 H 41.41758 v -80.611 h 7.341748 z M 40.668855,78.121257 c 0.08885,-2.095321 2.430441,-4.409082 4.527243,-4.368986 2.285853,0.04367 4.810649,2.662551 4.749784,4.947986 -0.05847,2.201332 -2.622796,4.625281 -4.822154,4.51551 -2.253047,-0.11239 -4.550367,-2.840666 -4.454873,-5.09451 z"
       id="path1159"
       inkscape:connector-curvature="0"
       sodipodi:nodetypes="cccccaaaaa" /><path
       style="font-style:normal;font-variant:normal;font-weight:300;font-stretch:normal;font-size:medium;line-height:1.25;font-family:'Open Sans';-inkscape-font-specification:'Open Sans, Light';font-variant-ligatures:normal;font-variant-caps:normal;font-variant-numeric:normal;font-feature-settings:normal;text-align:start;letter-spacing:0px;word-spacing:0px;writing-mode:lr-tb;text-anchor:start;fill:#ffffff;fill-opacity:1;stroke:none;stroke-width:3.7969718"
       inkscape:connector-curvature="0"
       d="M 102.10189,142.0618 73.99557,102.90576 h 8.454148 l 24.027582,33.9649 23.80511,-33.9649 h 8.08334 l -27.6614,39.15604 29.66369,41.45496 h -8.5283 L 106.4773,147.54957 80.966545,183.51676 h -8.083374 z"
       id="path1161" /><path
       style="font-style:normal;font-variant:normal;font-weight:300;font-stretch:normal;font-size:medium;line-height:1.25;font-family:'Open Sans';-inkscape-font-specification:'Open Sans, Light';font-variant-ligatures:normal;font-variant-caps:normal;font-variant-numeric:normal;font-feature-settings:normal;text-align:start;letter-spacing:0px;word-spacing:0px;writing-mode:lr-tb;text-anchor:start;fill:#ffffff;fill-opacity:1;stroke:none;stroke-width:3.7969718"
       inkscape:connector-curvature="0"
       d="M 199.25039,183.51676 V 75.096057 h 7.56426 V 176.39752 h 51.68893 v 7.11924 z"
       id="path1163" /><path
       style="font-style:normal;font-variant:normal;font-weight:300;font-stretch:normal;font-size:medium;line-height:1.25;font-family:'Open Sans';-inkscape-font-specification:'Open Sans, Light';font-variant-ligatures:normal;font-variant-caps:normal;font-variant-numeric:normal;font-feature-settings:normal;text-align:start;letter-spacing:0px;word-spacing:0px;writing-mode:lr-tb;text-anchor:start;fill:#ffffff;fill-opacity:1;stroke:none;stroke-width:3.7969718"
       inkscape:connector-curvature="0"
       d="m 337.87859,145.25065 h -44.05053 l -15.12847,38.26611 H 270.3196 L 313.9252,74.65109 h 4.82033 l 42.71571,108.86567 h -8.52834 z m -41.30665,-6.82266 h 38.78523 L 320.59952,99.346101 q -1.85399,-4.597867 -4.44956,-12.755357 -2.00229,7.119284 -4.3754,12.903666 z"
       id="path1165" /><path
       style="font-style:normal;font-variant:normal;font-weight:300;font-stretch:normal;font-size:medium;line-height:1.25;font-family:'Open Sans';-inkscape-font-specification:'Open Sans, Light';font-variant-ligatures:normal;font-variant-caps:normal;font-variant-numeric:normal;font-feature-settings:normal;text-align:start;letter-spacing:0px;word-spacing:0px;writing-mode:lr-tb;text-anchor:start;fill:#ffffff;fill-opacity:1;stroke:none;stroke-width:3.7969718"
       inkscape:connector-curvature="0"
       d="m 373.27724,75.096057 h 29.73785 q 20.0971,0 29.51534,6.822627 9.4182,6.822664 9.4182,20.616266 0,9.41824 -5.78439,15.72174 -5.71026,6.22939 -16.75998,8.00922 v 0.44493 q 12.97786,1.92814 19.0589,8.23168 6.15519,6.22935 6.15519,17.42742 0,14.98015 -9.93732,23.06349 -9.93732,8.08333 -28.18048,8.08333 h -33.22331 z m 7.56425,48.277623 h 23.87923 q 15.27682,0 22.1736,-5.04283 6.97097,-5.11696 6.97097,-15.94421 0,-10.827255 -7.86087,-15.721742 -7.78672,-4.894524 -23.28599,-4.894524 h -21.87694 z m 0,6.67432 v 46.79444 h 25.51075 q 30.10862,0 30.10862,-24.4725 0,-22.32194 -31.74014,-22.32194 z"
       id="path1167" /><path
       style="font-style:normal;font-variant:normal;font-weight:300;font-stretch:normal;font-size:medium;line-height:1.25;font-family:'Open Sans';-inkscape-font-specification:'Open Sans, Light';font-variant-ligatures:normal;font-variant-caps:normal;font-variant-numeric:normal;font-feature-settings:normal;text-align:start;letter-spacing:0px;word-spacing:0px;writing-mode:lr-tb;text-anchor:start;fill:#ffffff;fill-opacity:1;stroke:none;stroke-width:3.7969718"
       inkscape:connector-curvature="0"
       d="m 523.40013,155.55879 q 0,13.57109 -10.01148,21.50616 -9.93736,7.93502 -26.47484,7.93502 -19.87464,0 -30.47943,-4.3754 v -7.56425 q 11.71715,4.96868 29.88615,4.96868 13.34868,0 21.13539,-6.08104 7.86087,-6.15523 7.86087,-16.09255 0,-6.1552 -2.59557,-10.15983 -2.59557,-4.07874 -8.45415,-7.4159 -5.85857,-3.33716 -17.20495,-7.19344 -16.61164,-5.71027 -22.98933,-12.31043 -6.30355,-6.67431 -6.30355,-17.72403 0,-12.162122 9.49239,-19.800528 9.56655,-7.712523 24.5467,-7.712523 15.27678,0 28.69961,5.784421 l -2.74392,6.526007 q -13.49695,-5.636111 -25.80738,-5.636111 -12.0138,0 -19.13309,5.561918 -7.11924,5.561956 -7.11924,15.128506 0,6.00688 2.1506,9.86316 2.22476,3.85628 7.19344,6.97094 4.96864,3.04054 17.0566,7.34178 12.68124,4.37537 19.0589,8.52831 6.3777,4.07874 9.26993,9.34404 2.96635,5.19114 2.96635,12.60709 z"
       id="path1169" /></g></svg>